<svg xmlns="http://www.w3.org/2000/svg" xmlns:xlink="http://www.w3.org/1999/xlink" version="1.1" x="0px" y="0px" viewBox="0 0 424.333 440.735" style="enable-background:new 0 0 424.333 352.588;" xml:space="preserve"><g><g><ellipse transform="matrix(0.4527 -0.8917 0.8917 0.4527 50.8693 213.9913)" cx="199.745" cy="65.559" rx="22.494" ry="22.495"/><path d="M225.106,236.607l5.019-0.107l-0.834-97.899c-2.506,1.057-4.97,1.952-7.384,2.67L225.106,236.607z"/><path d="M226.33,119.003c0.963,0,1.902,0.144,2.798,0.405l-0.162-19.007l-8.425,0.178l0.662,19.733    c0.371-0.154,0.738-0.3,1.115-0.465C223.593,119.287,224.943,119.003,226.33,119.003z"/><path d="M186.742,106.275c-0.175-0.643-0.289-1.147-0.357-1.466c-0.034-0.157-0.055-0.27-0.066-0.329l-0.005-0.013    c-0.729-4.357-4.854-7.298-9.21-6.567c-4.357,0.729-7.298,4.854-6.567,9.213l-0.002-0.002c0.123,0.563,1.366,8.297,6.416,16.706    c1.715,2.826,3.914,5.745,6.714,8.405c1.35,1.282,2.827,2.509,4.479,3.627c5.025,3.421,11.587,5.706,19.146,5.706    c0.043,0,0.084,0,0.126,0c4.481-0.001,9.284-0.772,14.421-2.352c2.404-0.739,4.879-1.647,7.436-2.758    c0.092-0.04,0.182-0.073,0.273-0.113c4.044-1.775,5.887-6.493,4.112-10.539c-0.901-2.056-2.565-3.539-4.513-4.271    c-1.885-0.709-4.037-0.715-6.026,0.158c-0.632,0.277-1.238,0.521-1.845,0.764c-5.694,2.283-10.269,3.112-13.858,3.11    c-4.559-0.025-7.661-1.204-10.324-2.971c-2.402-1.593-4.405-3.884-5.999-6.344c-1.027-1.586-1.888-3.24-2.564-4.828    C187.664,109.406,187.086,107.563,186.742,106.275z"/><g><path d="M217.503,234.097c0.013-13.657-3.781-25.815-9.254-35.936c-8.246-15.22-20.018-26.125-29.648-33.445     c-1.56-1.18-3.058-2.255-4.49-3.248c1.506-9.243,4.969-18.665,8.707-27.304c-2.855-2.611-5.398-5.719-7.577-9.31     c-4.278-7.128-5.99-13.821-6.633-17.178l-0.027-0.142c-0.926-5.531,2.757-10.696,8.193-11.606     c0.549-0.094,1.108-0.138,1.662-0.138c4.9,0,9.045,3.51,9.851,8.347l0.054,0.249c0.064,0.302,0.17,0.77,0.332,1.366     c0.304,1.138,0.844,2.899,1.692,4.865c0.526,1.237,1.127,2.408,1.776,3.509c3.842-8.697,2.596-19.509-4.552-23.277     c-0.595-0.314-1.225-0.59-1.878-0.836l0.021-0.066c-5.956-1.819-11.041-2.599-15.41-2.599c-3.174-0.019-5.959,0.414-8.399,1.148     c1.301-1.91,2.314-4.059,2.917-6.428c2.775-10.905-3.816-21.995-14.721-24.771c-10.904-2.775-21.994,3.815-24.771,14.721     c-1.379,5.422-0.441,10.887,2.189,15.355c-0.942,0.093-1.496,0.169-1.496,0.169s-10.695,5.534-9.311,22.396     c1.384,16.862-1.643,15.576-7.017,24.528c-5.373,8.95-11.658,32.632,6.42,30.526c18.077-2.107,21.682,6.033,22.687-1.966     c0,0,0.388-0.982,1.046-2.699c0.612,3.637,1.946,6.442,3.732,8.633c0.148,0.41,0.312,0.816,0.506,1.215     c0.003,0.006,0.006,0.014,0.013,0.025l0.004-0.002c0.447,0.83,7.872,17.291,7.785,35.775c0.002,6.484-0.861,13.186-3.037,19.694     c-2.188,6.516-5.641,12.864-11.136,18.947c-4.634,5.119-4.241,13.022,0.878,17.656c2.393,2.166,5.395,3.233,8.386,3.233     c3.408,0,6.804-1.386,9.271-4.111c7.892-8.707,13.143-18.291,16.311-27.803c3.181-9.518,4.328-18.936,4.328-27.617     c-0.012-3.311-0.182-6.518-0.469-9.598c3.86,4.249,7.419,9.063,10.161,14.32c3.63,6.975,5.895,14.629,5.905,23.401     c0,0.246,0,0.494-0.004,0.745c-0.089,6.902,5.435,12.571,12.339,12.66c6.902,0.089,12.569-5.436,12.66-12.338h-0.002     C217.503,234.808,217.503,234.451,217.503,234.097z M153.535,84.043c-4.609,2.423-9.857,2.761-13.589-1.268     c-2.376-2.564-3.707-8.15-1.242-11.044c4.129-4.849,14.698-1.86,11.447,5.199c-0.191,0.414-1.488-0.994-1.275-1.457     c2.804-6.088-7.889-5.778-9.618-1.054c-4.124,11.267,11.237,11.686,16.551,5.236c4.681-5.681,2.431-12.551-4.699-15.06     c-3.973-1.398-8.623-1.632-12.168,1.059c-6.568,4.986-7.374,14.268-4.005,21.38c-0.16-0.001-0.319-0.002-0.476-0.002     c-0.111,0-0.226-0.001-0.336,0c-2.12-4.17-3.111-8.986-2.079-13.598c1.416-6.324,6.386-12.285,13.507-11.529     c3.518,0.374,7.737,1.528,10.364,3.925c1.381,1.261,2.446,3.216,3.25,4.75C161.555,75.137,160.226,80.526,153.535,84.043z      M158.301,101.31c-0.586,0.922-1.149,1.826-1.7,2.72c0.309-2.763,0.351-5.13,0.041-6.93c2.212-2.127,5.361-3.91,10.154-4.521     C163.722,94.575,160.8,97.429,158.301,101.31z"/></g></g><path d="M370.833,131.5l-1.371-4.239L385.583,116l9.751-22.5L382.833,112l-15.551,8.523L354.333,80.5l1.262-16.121L386.833,49l4-21   l-7.499,17.167L356.219,56.41L358.833,23l-28.5-23l22.5,27.5l-7,54l9.742,28.67l-34.242-6.67l-22.5-28l14,35.5l45.842,8.29   l4.658,13.71l-5.868,38.368c-28.981,9.238-59.244,20.198-75.132,32.304c-31.499,23.998-30.423,45.42-123.418,66.42   c-60.676,13.701-125.993,60.074-125.993,60.074L0,352.588h424.333V149.672c-9.137,4.264-29.079,10.013-51.651,16.944L370.833,131.5   z M412.333,166.924v2.153c-6.869,2.468-14.868,5.172-23.762,8.177c-33.81,11.425-80.113,27.074-99.361,42.694   c-6.974,5.661-12.15,11.097-17.628,16.855c-18.601,19.546-35.657,33.259-110.916,52.696   c-47.689,12.318-106.846,43.24-124.942,55.536l-11.057,0.131c0,0,88.752-52.499,136.891-63.371   c73.955-16.7,91.638-34.173,110.357-52.672c5.514-5.45,10.723-10.597,17.691-15.907c19.233-14.654,64.845-28.525,98.15-38.654   C397.018,171.746,405.311,169.225,412.333,166.924z"/></g><text x="0" y="367.588" fill="#000000" font-size="5px" font-weight="bold" font-family="'Helvetica Neue', Helvetica, Arial-Unicode, Arial, Sans-serif">Created by Gan Khoon Lay</text><text x="0" y="372.588" fill="#000000" font-size="5px" font-weight="bold" font-family="'Helvetica Neue', Helvetica, Arial-Unicode, Arial, Sans-serif">from the Noun Project</text></svg>