<svg id="Layer_1" data-name="Layer 1" xmlns="http://www.w3.org/2000/svg" viewBox="0 0 1361.88 176.18"><defs><style>.cls-1{opacity:0.46;}.cls-2{fill:#eae9e7;}.cls-3{fill:#e8e8e8;}</style></defs><title>bottom_banner</title><g class="cls-1"><path class="cls-2" d="M978.09,204.64h5.27c.05-2.81.15-5.89.31-9.1a168.54,168.54,0,0,1,3.14-26.6v0l0-.17c1.65-5.75,3.19-10.41,5.19-13.57a35.84,35.84,0,0,1-2,9.3,3.15,3.15,0,0,0,0,.32,13.19,13.19,0,0,0-1.17,5.63v0c0,5,2.4,9,5.34,9l.69-.29a123,123,0,0,1-.09,25.46h32a152.93,152.93,0,0,1-.25-25.23l.13.05c2.93,0,5.34-4.07,5.34-9v0a13.2,13.2,0,0,0-1.17-5.63c0-.11,0-.19,0-.32a33.91,33.91,0,0,1-1.84-8.1l.2-1.81,0,.05v0c2.1,3.22,3.65,8.12,5.36,14.12,2.48,11.24,3.26,25.42,3.46,35.88h5.27c-.27-16.36-1.57-28.6-3.41-37.75q-.4-2-.83-3.77l0-.16a52.78,52.78,0,0,0-5.38-14.7,14.1,14.1,0,0,0,4.09-9.92V81.2a14.07,14.07,0,0,0-2.86-8.51c-1.86-4.52-12.11-8-24.48-8a52,52,0,0,0-16.85,2.53,14.2,14.2,0,0,0-11.78,14v57.14a14.14,14.14,0,0,0,5.46,11.15,53.67,53.67,0,0,0-4.06,10.62A119.3,119.3,0,0,0,979.89,177a254.51,254.51,0,0,0-1.79,27.62" transform="translate(-1.39 -29.82)"/><path class="cls-2" d="M850.06,199.49h.56a1.43,1.43,0,0,0,0,.17v5h4.82v-.84l0,.05a.94.94,0,0,0,1.28.34L857,204a.94.94,0,0,0,.34-1.28l-1.48-2.56a.92.92,0,0,0-.46-.4v-.3h1.08s-2.06-25.59,7-38.38v34.54a4.31,4.31,0,0,0,1.85,3.54h-.94v1.66h0v.62h0v3.16h38.72V199.2h-.93a4.31,4.31,0,0,0,1.85-3.54V160.88c2.61,3.84,4.27,8.88,5.32,14.06A106.14,106.14,0,0,1,911,199.49h1.09v.3a.91.91,0,0,0-.46.4l-1.48,2.56a.94.94,0,0,0,.34,1.28l.28.16a.94.94,0,0,0,1.28-.34l0-.05v.84h4.82v-5a1.64,1.64,0,0,0,0-.17h.55A139.94,139.94,0,0,0,917,181.8a69.79,69.79,0,0,0-3.79-18c-3.62-9.63-8.86-13.73-13.14-15.43a8.22,8.22,0,0,0-4.22-1.16H887.8v-5.67a17.37,17.37,0,0,0,13.06-16.84v-1.86a2.23,2.23,0,0,0,0-4.46v-3.78a14.2,14.2,0,0,0-14-14.2,19.7,19.7,0,0,0,.09-2c0-5.06-1.76-9.16-3.95-9.16S879,93.4,879,98.45c0,.7,0,1.38.1,2a14.21,14.21,0,0,0-13,14.15v3.78a2.23,2.23,0,0,0,0,4.46v1.86a17.37,17.37,0,0,0,13.06,16.84v5.67h-7.37a8.18,8.18,0,0,0-4,1c-7.74,2.85-19,13.45-17.77,51.24" transform="translate(-1.39 -29.82)"/><path class="cls-2" d="M912.09,204.64H905a153.64,153.64,0,0,1,4.43-29.7,78.31,78.31,0,0,1,3.81-11.1c4.59-10.51,10.22-15.31,14.87-17.46h0a9.13,9.13,0,0,1,5.18-1.65H943v-9.24a22.94,22.94,0,0,1-17.24-22.22v-9.56a5,5,0,0,0,1.27.2,2.41,2.41,0,0,1-1.27.36,2.78,2.78,0,0,1-2.35-1.48,4,4,0,0,1-.45-1.1,5.09,5.09,0,0,1-.93-2.94V71.83a11.74,11.74,0,0,1,.26-2.47A3.69,3.69,0,0,1,922,68V64.5a5.07,5.07,0,0,1,.41-2c.57-4.76,3.83-8.4,7.76-8.4a6.57,6.57,0,0,1,3.53,1.05A7.54,7.54,0,0,1,939,53a7.11,7.11,0,0,1,1.59.18l.32.08c-.23.06-.46.14-.69.23l.37-.3a7.39,7.39,0,0,1,4.59-1.63,7.18,7.18,0,0,1,2.92.62l.33.15-.5,0,.17-.11a7.31,7.31,0,0,1,4-1.2,7.52,7.52,0,0,1,5.25,2.21l.22.22.19-.11a7.27,7.27,0,0,1,3.67-1,7.48,7.48,0,0,1,5.06,2l.3.29h.46a7.24,7.24,0,0,1,3.14.72,9.55,9.55,0,0,1,5,8.72,10.69,10.69,0,0,1-.12,1.64,22.85,22.85,0,0,1,.12,2.4c0,.25,0,.51,0,.76s0,.24,0,.36V98.76a5.12,5.12,0,0,1-.93,2.95,3.76,3.76,0,0,1-1,1.83,2.55,2.55,0,0,1-1.76.74v9a22.94,22.94,0,0,1-17.24,22.22v9.24h10.65a9.22,9.22,0,0,1,5.55,1.92c3.94,2,8.5,5.86,12.52,13.46a62.12,62.12,0,0,1,3.71,8.64c3,8.58,5.33,20.19,6.32,35.89h-8.59c-.23-3-.53-6-.92-9.1A111.78,111.78,0,0,0,979.89,177a53.58,53.58,0,0,0-3.93-9.67v37.29H922.41V167.75a58.84,58.84,0,0,0-5.4,14,133.64,133.64,0,0,0-3.56,22.84Z" transform="translate(-1.39 -29.82)"/></g><g class="cls-1"><path class="cls-2" d="M1154.25,203.49h5.27c.05-2.81.15-5.89.31-9.1a168.55,168.55,0,0,1,3.14-26.6v0l0-.17c1.65-5.75,3.19-10.41,5.19-13.57a35.84,35.84,0,0,1-2,9.3,3.13,3.13,0,0,0,0,.32,13.19,13.19,0,0,0-1.17,5.63v0c0,5,2.4,9,5.33,9l.69-.29a123,123,0,0,1-.09,25.46h32a152.92,152.92,0,0,1-.25-25.23l.13.05c2.93,0,5.34-4.07,5.34-9v0a13.2,13.2,0,0,0-1.17-5.63c0-.11,0-.19,0-.32a33.9,33.9,0,0,1-1.84-8.1l.2-1.81,0,.05v0c2.1,3.22,3.65,8.12,5.36,14.12,2.48,11.24,3.26,25.42,3.46,35.88h5.27c-.27-16.36-1.57-28.6-3.41-37.75q-.4-2-.83-3.77l0-.16a52.78,52.78,0,0,0-5.38-14.7,14.1,14.1,0,0,0,4.09-9.92V80.05a14.07,14.07,0,0,0-2.86-8.51c-1.86-4.52-12.11-8-24.48-8a52,52,0,0,0-16.85,2.53,14.2,14.2,0,0,0-11.78,14v57.14a14.14,14.14,0,0,0,5.46,11.15,53.67,53.67,0,0,0-4.06,10.62,119.32,119.32,0,0,0-3.26,16.92,254.53,254.53,0,0,0-1.79,27.62" transform="translate(-1.39 -29.82)"/><path class="cls-2" d="M1026.22,198.35h.56a1.41,1.41,0,0,0,0,.17v5h4.82v-.84l0,.05a.94.94,0,0,0,1.28.34l.28-.16a.94.94,0,0,0,.34-1.28L1032,199a.92.92,0,0,0-.46-.4v-.3h1.08s-2.06-25.59,7-38.38v34.54a4.31,4.31,0,0,0,1.85,3.54h-.94v1.66h0v.62h0v3.16h38.72v-5.44h-.93a4.31,4.31,0,0,0,1.85-3.54V159.73c2.61,3.84,4.27,8.88,5.32,14.06a106.14,106.14,0,0,1,1.58,24.56h1.09v.3a.91.91,0,0,0-.46.4l-1.48,2.56a.94.94,0,0,0,.34,1.28l.28.16a.94.94,0,0,0,1.28-.34l0-.05v.84h4.82v-5a1.67,1.67,0,0,0,0-.17h.55a139.94,139.94,0,0,0-.44-17.69,69.79,69.79,0,0,0-3.79-18c-3.62-9.63-8.86-13.73-13.14-15.43a8.22,8.22,0,0,0-4.22-1.16H1064v-5.67A17.37,17.37,0,0,0,1077,123.59v-1.86a2.23,2.23,0,0,0,0-4.46v-3.78a14.2,14.2,0,0,0-14-14.2,19.73,19.73,0,0,0,.09-2c0-5.06-1.76-9.16-3.95-9.16s-3.94,4.1-3.94,9.16c0,.7,0,1.38.1,2a14.21,14.21,0,0,0-13,14.15v3.78a2.23,2.23,0,0,0,0,4.46v1.86a17.37,17.37,0,0,0,13.06,16.84v5.67h-7.37a8.18,8.18,0,0,0-4,1c-7.74,2.85-19,13.45-17.77,51.24" transform="translate(-1.39 -29.82)"/><path class="cls-2" d="M1088.25,203.49h-7.1a153.64,153.64,0,0,1,4.43-29.7,78.32,78.32,0,0,1,3.81-11.1c4.59-10.51,10.22-15.31,14.87-17.46h0a9.13,9.13,0,0,1,5.18-1.65h9.74v-9.24a22.94,22.94,0,0,1-17.24-22.22v-9.56a5,5,0,0,0,1.27.2,2.41,2.41,0,0,1-1.27.36,2.78,2.78,0,0,1-2.35-1.48,4,4,0,0,1-.45-1.1,5.09,5.09,0,0,1-.93-2.94V70.68a11.74,11.74,0,0,1,.26-2.47,3.69,3.69,0,0,1-.26-1.35v-3.5a5.07,5.07,0,0,1,.41-2c.57-4.76,3.83-8.4,7.76-8.4a6.57,6.57,0,0,1,3.53,1.05,7.54,7.54,0,0,1,5.24-2.19,7.11,7.11,0,0,1,1.59.18l.32.08c-.23.06-.46.14-.69.23l.37-.3a7.39,7.39,0,0,1,4.59-1.63,7.18,7.18,0,0,1,2.92.62l.33.15-.5,0,.17-.11a7.31,7.31,0,0,1,4-1.2,7.52,7.52,0,0,1,5.25,2.21l.22.22.19-.11a7.27,7.27,0,0,1,3.67-1,7.48,7.48,0,0,1,5.06,2l.3.29h.46a7.24,7.24,0,0,1,3.14.72,9.55,9.55,0,0,1,5,8.72,10.71,10.71,0,0,1-.12,1.64,22.87,22.87,0,0,1,.12,2.4c0,.25,0,.51,0,.76s0,.24,0,.36V97.61a5.12,5.12,0,0,1-.93,2.95,3.76,3.76,0,0,1-1,1.83,2.55,2.55,0,0,1-1.76.74v9a22.94,22.94,0,0,1-17.24,22.22v9.24h10.65a9.22,9.22,0,0,1,5.55,1.92c3.94,2,8.5,5.86,12.52,13.46a62.12,62.12,0,0,1,3.71,8.64c3,8.58,5.33,20.19,6.32,35.89h-8.59c-.23-3-.53-6-.92-9.1a111.77,111.77,0,0,0-3.79-18.52,53.58,53.58,0,0,0-3.93-9.67v37.29h-53.54V166.61a58.84,58.84,0,0,0-5.4,14,133.64,133.64,0,0,0-3.56,22.84Z" transform="translate(-1.39 -29.82)"/><path class="cls-2" d="M912.26,203.49h-7.1a153.72,153.72,0,0,1,4.43-29.7,78.32,78.32,0,0,1,3.81-11.1c4.59-10.51,10.22-15.31,14.87-17.46h0a9.13,9.13,0,0,1,5.18-1.65h9.74v-9.24a23,23,0,0,1-17-19.12,22.58,22.58,0,0,1-.21-3.1v-9.56a5,5,0,0,0,1.27.2,2.42,2.42,0,0,1-1.27.36,2.78,2.78,0,0,1-2.35-1.48,4,4,0,0,1-.45-1.1,5.09,5.09,0,0,1-.93-2.94V70.68a11.74,11.74,0,0,1,.26-2.47,3.71,3.71,0,0,1-.26-1.35v-3.5a5.07,5.07,0,0,1,.41-2c.56-4.76,3.83-8.4,7.76-8.4A6.57,6.57,0,0,1,933.92,54a7.53,7.53,0,0,1,5.24-2.19,7.1,7.1,0,0,1,1.58.18l.32.08c-.23.06-.46.14-.69.23l.37-.3a7.39,7.39,0,0,1,4.59-1.63,7.18,7.18,0,0,1,2.91.62l.33.15-.5,0,.17-.11a7.32,7.32,0,0,1,4-1.2A7.52,7.52,0,0,1,957.49,52l.22.22.19-.11a7.27,7.27,0,0,1,3.67-1,7.48,7.48,0,0,1,5.06,2l.3.29h.46a7.24,7.24,0,0,1,3.14.72,9.55,9.55,0,0,1,5,8.72,10.71,10.71,0,0,1-.12,1.64,22.87,22.87,0,0,1,.13,2.4c0,.25,0,.51,0,.76a3.47,3.47,0,0,1,0,.36V97.61a5.12,5.12,0,0,1-.93,2.95,3.76,3.76,0,0,1-1,1.83,2.56,2.56,0,0,1-1.76.74v9a22.72,22.72,0,0,1-.21,3.1,23,23,0,0,1-17,19.12v9.24h10.65a9.21,9.21,0,0,1,5.55,1.92c3.94,2,8.5,5.86,12.52,13.46A62.35,62.35,0,0,1,987,167.6c3,8.58,5.33,20.19,6.32,35.89h-8.59c-.23-3-.53-6-.92-9.1a112,112,0,0,0-3.79-18.52,53.65,53.65,0,0,0-3.93-9.67v37.29H922.58V166.61a58.8,58.8,0,0,0-5.4,14,133.54,133.54,0,0,0-3.56,22.84Z" transform="translate(-1.39 -29.82)"/></g><path class="cls-3" d="M1298.08,183.54h5.27c.05-2.81.15-5.89.31-9.1a168.54,168.54,0,0,1,3.14-26.6v0l0-.17c1.65-5.75,3.19-10.41,5.19-13.57a35.84,35.84,0,0,1-2,9.3,3.16,3.16,0,0,0,0,.32,13.19,13.19,0,0,0-1.17,5.63v0c0,5,2.4,9,5.34,9l.69-.29a123,123,0,0,1-.09,25.46h32a152.93,152.93,0,0,1-.25-25.23l.13.05c2.93,0,5.34-4.07,5.34-9v0a13.2,13.2,0,0,0-1.17-5.63c0-.11,0-.19,0-.32a33.91,33.91,0,0,1-1.84-8.1l.2-1.81,0,.05v0c2.1,3.22,3.65,8.12,5.36,14.12,2.48,11.24,3.26,25.42,3.46,35.88h5.27c-.27-16.36-1.57-28.6-3.41-37.75q-.4-2-.83-3.77l0-.16a52.78,52.78,0,0,0-5.38-14.7,14.1,14.1,0,0,0,4.09-9.92V60.1a14.07,14.07,0,0,0-2.86-8.51c-1.86-4.52-12.11-8-24.48-8a52,52,0,0,0-16.85,2.53,14.2,14.2,0,0,0-11.78,14v57.14a14.14,14.14,0,0,0,5.46,11.15,53.67,53.67,0,0,0-4.06,10.62,119.3,119.3,0,0,0-3.26,16.92,254.51,254.51,0,0,0-1.79,27.62" transform="translate(-1.39 -29.82)"/><path class="cls-3" d="M1170,178.39h.56a1.43,1.43,0,0,0,0,.17v5h4.82v-.84l0,.05a.94.94,0,0,0,1.28.34l.28-.16a.94.94,0,0,0,.34-1.28l-1.48-2.56a.92.92,0,0,0-.46-.4v-.3h1.08s-2.06-25.59,7-38.38v34.54a4.31,4.31,0,0,0,1.85,3.54h-.94v1.66h0v.62h0v3.16h38.72v-5.44h-.93a4.31,4.31,0,0,0,1.85-3.54V139.78c2.61,3.84,4.27,8.88,5.32,14.06a106.14,106.14,0,0,1,1.58,24.56h1.09v.3a.91.91,0,0,0-.46.4l-1.48,2.56a.94.94,0,0,0,.34,1.28l.28.16a.94.94,0,0,0,1.28-.34l0-.05v.84h4.82v-5a1.64,1.64,0,0,0,0-.17h.55a139.94,139.94,0,0,0-.44-17.69,69.79,69.79,0,0,0-3.79-18c-3.62-9.63-8.86-13.73-13.14-15.43a8.22,8.22,0,0,0-4.22-1.16h-8.06v-5.67a17.37,17.37,0,0,0,13.06-16.84v-1.86a2.23,2.23,0,0,0,0-4.46V93.53a14.2,14.2,0,0,0-14-14.2,19.7,19.7,0,0,0,.09-2c0-5.06-1.76-9.16-3.95-9.16s-3.94,4.1-3.94,9.16c0,.7,0,1.38.1,2a14.21,14.21,0,0,0-13,14.15v3.78a2.23,2.23,0,0,0,0,4.46v1.86a17.37,17.37,0,0,0,13.06,16.84v5.67h-7.37a8.18,8.18,0,0,0-4,1c-7.74,2.85-19,13.45-17.77,51.24" transform="translate(-1.39 -29.82)"/><path class="cls-3" d="M1232.08,183.54H1225a153.64,153.64,0,0,1,4.43-29.7,78.32,78.32,0,0,1,3.81-11.1c4.59-10.51,10.22-15.31,14.87-17.45h0a9.13,9.13,0,0,1,5.18-1.65H1263v-9.24a23,23,0,0,1-17-19.12,22.72,22.72,0,0,1-.21-3.1V82.61a5,5,0,0,0,1.27.2,2.41,2.41,0,0,1-1.27.36,2.78,2.78,0,0,1-2.35-1.48,4,4,0,0,1-.45-1.1,5.09,5.09,0,0,1-.93-2.94V50.72a11.75,11.75,0,0,1,.26-2.47,3.69,3.69,0,0,1-.26-1.35v-3.5a5.07,5.07,0,0,1,.41-2c.57-4.76,3.83-8.4,7.76-8.4a6.57,6.57,0,0,1,3.53,1.05,7.54,7.54,0,0,1,5.24-2.19,7.11,7.11,0,0,1,1.59.18l.32.08c-.23.06-.46.14-.69.23l.37-.3a7.39,7.39,0,0,1,4.59-1.63,7.18,7.18,0,0,1,2.92.62l.33.15-.5,0,.17-.11a7.31,7.31,0,0,1,4-1.2,7.52,7.52,0,0,1,5.25,2.21l.22.22.19-.11a7.27,7.27,0,0,1,3.67-1,7.48,7.48,0,0,1,5.06,2l.3.29h.46a7.24,7.24,0,0,1,3.14.72,9.55,9.55,0,0,1,5,8.72,10.71,10.71,0,0,1-.12,1.64,22.87,22.87,0,0,1,.12,2.4c0,.25,0,.51,0,.76s0,.24,0,.36V77.65a5.12,5.12,0,0,1-.93,2.95,3.76,3.76,0,0,1-1,1.83,2.55,2.55,0,0,1-1.76.74v9a22.94,22.94,0,0,1-17.24,22.22v9.24h10.65a9.22,9.22,0,0,1,5.55,1.92c3.94,2,8.5,5.86,12.52,13.46a62.11,62.11,0,0,1,3.71,8.64c3,8.58,5.33,20.19,6.32,35.89h-8.59c-.23-3-.53-6-.92-9.1a111.77,111.77,0,0,0-3.79-18.52,53.58,53.58,0,0,0-3.93-9.67v37.29H1242.4V146.65a58.84,58.84,0,0,0-5.4,14,133.64,133.64,0,0,0-3.56,22.84Z" transform="translate(-1.39 -29.82)"/><path class="cls-3" d="M1056.08,183.54H1049a153.72,153.72,0,0,1,4.43-29.7,78.33,78.33,0,0,1,3.81-11.1c4.59-10.51,10.22-15.31,14.87-17.45h0a9.12,9.12,0,0,1,5.18-1.65H1087v-9.24a23,23,0,0,1-17-19.12,22.58,22.58,0,0,1-.21-3.1V82.61a5,5,0,0,0,1.27.2,2.42,2.42,0,0,1-1.27.36,2.78,2.78,0,0,1-2.35-1.48,4,4,0,0,1-.45-1.1,5.09,5.09,0,0,1-.93-2.94V50.72a11.75,11.75,0,0,1,.26-2.47,3.71,3.71,0,0,1-.26-1.35v-3.5a5.07,5.07,0,0,1,.41-2c.56-4.76,3.83-8.4,7.76-8.4a6.57,6.57,0,0,1,3.53,1.05,7.53,7.53,0,0,1,5.24-2.19,7.09,7.09,0,0,1,1.58.18l.32.08c-.23.06-.46.14-.69.23l.37-.3a7.39,7.39,0,0,1,4.59-1.63,7.18,7.18,0,0,1,2.92.62l.33.15-.5,0,.17-.11a7.32,7.32,0,0,1,4-1.2,7.52,7.52,0,0,1,5.25,2.21l.22.22.19-.11a7.27,7.27,0,0,1,3.67-1,7.48,7.48,0,0,1,5.06,2l.3.29h.46a7.24,7.24,0,0,1,3.14.72,9.55,9.55,0,0,1,5,8.72,10.71,10.71,0,0,1-.12,1.64,22.87,22.87,0,0,1,.13,2.4c0,.25,0,.51,0,.76a3.47,3.47,0,0,1,0,.36V77.65a5.12,5.12,0,0,1-.93,2.95,3.76,3.76,0,0,1-1,1.83,2.56,2.56,0,0,1-1.76.74v9a22.94,22.94,0,0,1-17.24,22.22v9.24h10.65a9.21,9.21,0,0,1,5.55,1.92c3.94,2,8.5,5.86,12.52,13.46a62.34,62.34,0,0,1,3.71,8.64c3,8.58,5.33,20.19,6.32,35.89h-8.59c-.23-3-.53-6-.92-9.1a112,112,0,0,0-3.79-18.52,53.65,53.65,0,0,0-3.93-9.67v37.29h-53.54V146.65a58.79,58.79,0,0,0-5.4,14,133.55,133.55,0,0,0-3.56,22.84Z" transform="translate(-1.39 -29.82)"/><g class="cls-1"><path class="cls-2" d="M386.56,206h-5.27c-.05-2.81-.15-5.89-.31-9.1a168.54,168.54,0,0,0-3.14-26.6v0l0-.17c-1.65-5.75-3.19-10.41-5.19-13.57a35.84,35.84,0,0,0,2,9.3,3.15,3.15,0,0,1,0,.32,13.19,13.19,0,0,1,1.17,5.63v0c0,5-2.4,9-5.33,9l-.69-.29a123,123,0,0,0,.09,25.46h-32a152.93,152.93,0,0,0,.25-25.23l-.13.05c-2.93,0-5.34-4.07-5.34-9v0a13.2,13.2,0,0,1,1.17-5.63c0-.11,0-.19,0-.32a33.91,33.91,0,0,0,1.84-8.1l-.2-1.81,0,.05v0c-2.1,3.22-3.65,8.12-5.36,14.12-2.48,11.24-3.26,25.42-3.46,35.88h-5.27c.27-16.36,1.57-28.6,3.41-37.75q.4-2,.83-3.77l0-.16a52.78,52.78,0,0,1,5.38-14.7,14.1,14.1,0,0,1-4.09-9.92V82.56a14.07,14.07,0,0,1,2.86-8.51c1.86-4.52,12.11-8,24.48-8a52,52,0,0,1,16.85,2.53,14.2,14.2,0,0,1,11.78,14V139.7a14.14,14.14,0,0,1-5.46,11.15,53.67,53.67,0,0,1,4.06,10.62,119.3,119.3,0,0,1,3.26,16.92A254.51,254.51,0,0,1,386.56,206" transform="translate(-1.39 -29.82)"/><path class="cls-2" d="M514.6,200.86H514a1.43,1.43,0,0,1,0,.17v5h-4.82v-.84l0,.05a.94.94,0,0,1-1.28.34l-.28-.16a.94.94,0,0,1-.34-1.28l1.48-2.56a.92.92,0,0,1,.46-.4v-.3h-1.08s2.06-25.59-7-38.38V197a4.31,4.31,0,0,1-1.85,3.54h.94v1.66h0v.62h0V206H461.47v-5.44h.93a4.31,4.31,0,0,1-1.85-3.54V162.24c-2.61,3.84-4.27,8.88-5.32,14.06a106.14,106.14,0,0,0-1.58,24.56h-1.09v.3a.91.91,0,0,1,.46.4l1.48,2.56a.94.94,0,0,1-.34,1.28l-.28.16a.94.94,0,0,1-1.28-.34l0-.05V206h-4.82v-5a1.64,1.64,0,0,1,0-.17h-.55a139.94,139.94,0,0,1,.44-17.69,69.79,69.79,0,0,1,3.79-18c3.62-9.63,8.86-13.73,13.14-15.43a8.22,8.22,0,0,1,4.22-1.16h8.06v-5.67a17.37,17.37,0,0,1-13.06-16.84v-1.86a2.23,2.23,0,0,1,0-4.46V116a14.2,14.2,0,0,1,14-14.2,19.7,19.7,0,0,1-.09-2c0-5.06,1.76-9.16,3.95-9.16s3.94,4.1,3.94,9.16c0,.7,0,1.38-.1,2a14.21,14.21,0,0,1,13,14.15v3.78a2.23,2.23,0,0,1,0,4.46v1.86a17.37,17.37,0,0,1-13.06,16.84v5.67h7.38a8.18,8.18,0,0,1,4,1c7.74,2.85,19,13.45,17.77,51.24" transform="translate(-1.39 -29.82)"/><path class="cls-2" d="M452.57,206h7.1a153.64,153.64,0,0,0-4.43-29.7,78.31,78.31,0,0,0-3.81-11.1c-4.59-10.51-10.22-15.31-14.87-17.46h0a9.13,9.13,0,0,0-5.18-1.65h-9.74v-9.24a22.94,22.94,0,0,0,17.24-22.22v-9.56a5,5,0,0,1-1.27.2,2.41,2.41,0,0,0,1.27.36,2.78,2.78,0,0,0,2.35-1.48,4,4,0,0,0,.45-1.1,5.09,5.09,0,0,0,.93-2.94V73.19a11.74,11.74,0,0,0-.26-2.47,3.69,3.69,0,0,0,.26-1.35v-3.5a5.07,5.07,0,0,0-.41-2c-.57-4.76-3.83-8.4-7.76-8.4a6.57,6.57,0,0,0-3.53,1.05,7.54,7.54,0,0,0-5.24-2.19,7.11,7.11,0,0,0-1.59.18l-.32.08c.23.06.46.14.69.23l-.37-.3a7.39,7.39,0,0,0-4.59-1.63,7.18,7.18,0,0,0-2.92.62l-.33.15.5,0-.17-.11a7.31,7.31,0,0,0-4-1.2,7.52,7.52,0,0,0-5.25,2.21l-.22.22-.19-.11a7.27,7.27,0,0,0-3.67-1,7.48,7.48,0,0,0-5.06,2l-.3.29h-.46a7.24,7.24,0,0,0-3.14.72,9.55,9.55,0,0,0-5,8.72,10.69,10.69,0,0,0,.12,1.64,22.85,22.85,0,0,0-.12,2.4c0,.25,0,.51,0,.76s0,.24,0,.36v29.64a5.12,5.12,0,0,0,.93,2.95,3.76,3.76,0,0,0,1,1.83,2.55,2.55,0,0,0,1.76.74v9a22.94,22.94,0,0,0,17.24,22.22v9.24H399.58A9.22,9.22,0,0,0,394,148c-3.94,2-8.5,5.86-12.52,13.46a62.12,62.12,0,0,0-3.71,8.64c-3,8.58-5.33,20.19-6.32,35.89h8.59c.23-3,.53-6,.92-9.1a111.78,111.78,0,0,1,3.79-18.52,53.58,53.58,0,0,1,3.93-9.67V206h53.54V169.12a58.84,58.84,0,0,1,5.4,14A133.64,133.64,0,0,1,451.2,206Z" transform="translate(-1.39 -29.82)"/></g><g class="cls-1"><path class="cls-2" d="M210.4,204.85h-5.27c-.05-2.81-.15-5.89-.31-9.1a168.55,168.55,0,0,0-3.14-26.6v0l0-.17c-1.65-5.75-3.19-10.41-5.19-13.57a35.84,35.84,0,0,0,2,9.3,3.13,3.13,0,0,1,0,.32,13.19,13.19,0,0,1,1.17,5.63v0c0,5-2.4,9-5.33,9l-.69-.29a123,123,0,0,0,.09,25.46h-32a152.92,152.92,0,0,0,.25-25.23l-.13.05c-2.93,0-5.34-4.07-5.34-9v0a13.2,13.2,0,0,1,1.17-5.63c0-.11,0-.19,0-.32a33.9,33.9,0,0,0,1.84-8.1l-.2-1.81,0,.05v0c-2.1,3.22-3.65,8.12-5.36,14.12-2.48,11.24-3.26,25.42-3.46,35.88h-5.27c.27-16.36,1.57-28.6,3.41-37.75q.4-2,.83-3.77l0-.16a52.78,52.78,0,0,1,5.38-14.7,14.1,14.1,0,0,1-4.09-9.92V81.42a14.07,14.07,0,0,1,2.86-8.51c1.86-4.52,12.11-8,24.48-8A52,52,0,0,1,195,67.46a14.2,14.2,0,0,1,11.78,14v57.14a14.14,14.14,0,0,1-5.46,11.15,53.67,53.67,0,0,1,4.06,10.62,119.32,119.32,0,0,1,3.26,16.92,254.53,254.53,0,0,1,1.79,27.62" transform="translate(-1.39 -29.82)"/><path class="cls-2" d="M338.44,199.71h-.56a1.41,1.41,0,0,1,0,.17v5h-4.82V204l0,.05a.94.94,0,0,1-1.28.34l-.28-.16a.94.94,0,0,1-.34-1.28l1.48-2.56a.92.92,0,0,1,.46-.4v-.3H332s2.06-25.59-7-38.38v34.54a4.31,4.31,0,0,1-1.85,3.54H324v1.66h0v.62h0v3.16H285.31v-5.44h.93a4.31,4.31,0,0,1-1.85-3.54V161.1c-2.61,3.84-4.27,8.88-5.32,14.06a106.14,106.14,0,0,0-1.58,24.56H276.4v.3a.91.91,0,0,1,.46.4l1.48,2.56a.94.94,0,0,1-.34,1.28l-.28.16a.94.94,0,0,1-1.28-.34l0-.05v.84h-4.82v-5a1.67,1.67,0,0,1,0-.17H271a139.94,139.94,0,0,1,.44-17.69,69.79,69.79,0,0,1,3.79-18c3.62-9.63,8.86-13.73,13.14-15.43a8.22,8.22,0,0,1,4.22-1.16h8.06v-5.67a17.37,17.37,0,0,1-13.06-16.84v-1.86a2.23,2.23,0,0,1,0-4.46v-3.78a14.2,14.2,0,0,1,14-14.2,19.73,19.73,0,0,1-.09-2c0-5.06,1.76-9.16,3.95-9.16s3.94,4.1,3.94,9.16c0,.7,0,1.38-.1,2a14.21,14.21,0,0,1,13,14.15v3.78a2.23,2.23,0,0,1,0,4.46v1.86a17.37,17.37,0,0,1-13.06,16.84v5.67h7.38a8.18,8.18,0,0,1,4,1c7.74,2.85,19,13.45,17.77,51.24" transform="translate(-1.39 -29.82)"/><path class="cls-2" d="M276.4,204.85h7.1a153.64,153.64,0,0,0-4.43-29.7,78.32,78.32,0,0,0-3.81-11.1c-4.59-10.51-10.22-15.31-14.87-17.46h0a9.13,9.13,0,0,0-5.18-1.65h-9.74v-9.24a22.94,22.94,0,0,0,17.24-22.22v-9.56a5,5,0,0,1-1.27.2,2.41,2.41,0,0,0,1.27.36,2.78,2.78,0,0,0,2.35-1.48,4,4,0,0,0,.45-1.1,5.09,5.09,0,0,0,.93-2.94V72a11.74,11.74,0,0,0-.26-2.47,3.69,3.69,0,0,0,.26-1.35v-3.5a5.07,5.07,0,0,0-.41-2c-.57-4.76-3.83-8.4-7.76-8.4a6.57,6.57,0,0,0-3.53,1.05,7.54,7.54,0,0,0-5.24-2.19,7.11,7.11,0,0,0-1.59.18l-.32.08c.23.06.46.14.69.23l-.37-.3a7.39,7.39,0,0,0-4.59-1.63,7.18,7.18,0,0,0-2.92.62l-.33.15.5,0-.17-.11a7.31,7.31,0,0,0-4-1.2,7.52,7.52,0,0,0-5.25,2.21l-.22.22-.19-.11a7.27,7.27,0,0,0-3.67-1,7.48,7.48,0,0,0-5.06,2l-.3.29h-.46a7.24,7.24,0,0,0-3.14.72,9.55,9.55,0,0,0-5,8.72,10.71,10.71,0,0,0,.12,1.64,22.87,22.87,0,0,0-.12,2.4c0,.25,0,.51,0,.76s0,.24,0,.36V99a5.12,5.12,0,0,0,.93,2.95,3.76,3.76,0,0,0,1,1.83,2.55,2.55,0,0,0,1.76.74v9a22.94,22.94,0,0,0,17.24,22.22v9.24H223.42a9.22,9.22,0,0,0-5.55,1.92c-3.94,2-8.5,5.86-12.52,13.46a62.12,62.12,0,0,0-3.71,8.64c-3,8.58-5.33,20.19-6.32,35.89h8.59c.23-3,.53-6,.92-9.1a111.77,111.77,0,0,1,3.79-18.52,53.58,53.58,0,0,1,3.93-9.67v37.29h53.54V168a58.84,58.84,0,0,1,5.4,14A133.64,133.64,0,0,1,275,204.85Z" transform="translate(-1.39 -29.82)"/><path class="cls-2" d="M452.4,204.85h7.1a153.72,153.72,0,0,0-4.43-29.7,78.32,78.32,0,0,0-3.81-11.1c-4.59-10.51-10.22-15.31-14.87-17.46h0a9.13,9.13,0,0,0-5.18-1.65h-9.74v-9.24a23,23,0,0,0,17-19.12,22.58,22.58,0,0,0,.21-3.1v-9.56a5,5,0,0,1-1.27.2,2.42,2.42,0,0,0,1.27.36,2.78,2.78,0,0,0,2.35-1.48,4,4,0,0,0,.45-1.1,5.09,5.09,0,0,0,.93-2.94V72a11.74,11.74,0,0,0-.26-2.47,3.71,3.71,0,0,0,.26-1.35v-3.5a5.07,5.07,0,0,0-.41-2c-.56-4.76-3.83-8.4-7.76-8.4a6.57,6.57,0,0,0-3.53,1.05,7.53,7.53,0,0,0-5.24-2.19,7.1,7.1,0,0,0-1.58.18l-.32.08c.23.06.46.14.69.23l-.37-.3a7.39,7.39,0,0,0-4.59-1.63,7.18,7.18,0,0,0-2.92.62l-.33.15.5,0-.17-.11a7.32,7.32,0,0,0-4-1.2,7.52,7.52,0,0,0-5.25,2.21l-.22.22-.19-.11a7.27,7.27,0,0,0-3.67-1,7.48,7.48,0,0,0-5.06,2l-.3.29h-.46a7.24,7.24,0,0,0-3.14.72,9.55,9.55,0,0,0-5,8.72,10.71,10.71,0,0,0,.13,1.64,22.87,22.87,0,0,0-.12,2.4c0,.25,0,.51,0,.76a3.47,3.47,0,0,0,0,.36V99a5.12,5.12,0,0,0,.93,2.95,3.76,3.76,0,0,0,1,1.83,2.56,2.56,0,0,0,1.76.74v9a22.72,22.72,0,0,0,.21,3.1,23,23,0,0,0,17,19.12v9.24H399.41a9.21,9.21,0,0,0-5.55,1.92c-3.94,2-8.5,5.86-12.52,13.46a62.35,62.35,0,0,0-3.71,8.64c-3,8.58-5.33,20.19-6.32,35.89h8.59c.23-3,.53-6,.92-9.1a112,112,0,0,1,3.79-18.52,53.65,53.65,0,0,1,3.93-9.67v37.29h53.54V168a58.8,58.8,0,0,1,5.4,14A133.54,133.54,0,0,1,451,204.85Z" transform="translate(-1.39 -29.82)"/></g><path class="cls-3" d="M66.57,184.9H61.3c-.05-2.81-.15-5.89-.31-9.1a168.54,168.54,0,0,0-3.14-26.6v0l0-.17c-1.65-5.75-3.19-10.41-5.19-13.57a35.84,35.84,0,0,0,2,9.3,3.16,3.16,0,0,1,0,.32,13.19,13.19,0,0,1,1.17,5.63v0c0,5-2.4,9-5.34,9l-.69-.29a123,123,0,0,0,.09,25.46h-32a152.93,152.93,0,0,0,.25-25.23l-.13.05c-2.93,0-5.34-4.07-5.34-9v0A13.2,13.2,0,0,1,13.85,145c0-.11,0-.19,0-.32a33.91,33.91,0,0,0,1.84-8.1l-.2-1.81,0,.05v0c-2.1,3.22-3.65,8.12-5.36,14.12-2.48,11.24-3.26,25.42-3.46,35.88H1.39C1.66,168.54,3,156.3,4.8,147.15q.4-2,.83-3.77l0-.16A52.78,52.78,0,0,1,11,128.52,14.1,14.1,0,0,1,7,118.6V61.46A14.07,14.07,0,0,1,9.82,53c1.86-4.52,12.11-8,24.48-8A52,52,0,0,1,51.15,47.5a14.2,14.2,0,0,1,11.78,14V118.6a14.14,14.14,0,0,1-5.46,11.15,53.67,53.67,0,0,1,4.06,10.62,119.3,119.3,0,0,1,3.26,16.92,254.51,254.51,0,0,1,1.79,27.62" transform="translate(-1.39 -29.82)"/><path class="cls-3" d="M194.61,179.75H194a1.43,1.43,0,0,1,0,.17v5h-4.82v-.84l0,.05a.94.94,0,0,1-1.28.34l-.28-.16a.94.94,0,0,1-.34-1.28l1.48-2.56a.92.92,0,0,1,.46-.4v-.3h-1.08s2.06-25.59-7-38.38v34.54a4.31,4.31,0,0,1-1.85,3.54h.94v1.66h0v.62h0v3.16H141.48v-5.44h.93a4.31,4.31,0,0,1-1.85-3.54V141.14C138,145,136.29,150,135.25,155.2a106.14,106.14,0,0,0-1.58,24.56h-1.09v.3a.91.91,0,0,1,.46.4l1.48,2.56a.94.94,0,0,1-.34,1.28l-.28.16a.94.94,0,0,1-1.28-.34l0-.05v.84h-4.82v-5a1.64,1.64,0,0,1,0-.17h-.55a139.94,139.94,0,0,1,.44-17.69,69.79,69.79,0,0,1,3.79-18c3.62-9.63,8.86-13.73,13.14-15.43a8.22,8.22,0,0,1,4.22-1.16h8.06v-5.67A17.37,17.37,0,0,1,143.81,105v-1.86a2.23,2.23,0,0,1,0-4.46V94.89a14.2,14.2,0,0,1,14-14.2,19.7,19.7,0,0,1-.09-2c0-5.06,1.76-9.16,3.95-9.16s3.94,4.1,3.94,9.16c0,.7,0,1.38-.1,2a14.21,14.21,0,0,1,13,14.15v3.78a2.23,2.23,0,0,1,0,4.46V105a17.37,17.37,0,0,1-13.06,16.84v5.67h7.38a8.18,8.18,0,0,1,4,1c7.74,2.85,19,13.45,17.77,51.24" transform="translate(-1.39 -29.82)"/><path class="cls-3" d="M132.58,184.9h7.1a153.64,153.64,0,0,0-4.43-29.7,78.32,78.32,0,0,0-3.81-11.1c-4.59-10.51-10.22-15.31-14.87-17.46h0a9.13,9.13,0,0,0-5.18-1.65h-9.74v-9.24a23,23,0,0,0,17-19.12,22.72,22.72,0,0,0,.21-3.1V84a5,5,0,0,1-1.27.2,2.41,2.41,0,0,0,1.27.36,2.78,2.78,0,0,0,2.35-1.48,4,4,0,0,0,.45-1.1,5.09,5.09,0,0,0,.93-2.94V52.09a11.75,11.75,0,0,0-.26-2.47,3.69,3.69,0,0,0,.26-1.35v-3.5a5.07,5.07,0,0,0-.41-2c-.57-4.76-3.83-8.4-7.76-8.4a6.57,6.57,0,0,0-3.53,1.05,7.54,7.54,0,0,0-5.24-2.19,7.11,7.11,0,0,0-1.59.18l-.32.08c.23.06.46.14.69.23l-.37-.3a7.39,7.39,0,0,0-4.59-1.63,7.18,7.18,0,0,0-2.92.62l-.33.15.5,0-.17-.11a7.31,7.31,0,0,0-4-1.2,7.52,7.52,0,0,0-5.25,2.21l-.22.22-.19-.11a7.27,7.27,0,0,0-3.67-1,7.48,7.48,0,0,0-5.06,2l-.3.29h-.46a7.24,7.24,0,0,0-3.14.72,9.55,9.55,0,0,0-5,8.72,10.71,10.71,0,0,0,.12,1.64,22.87,22.87,0,0,0-.12,2.4c0,.25,0,.51,0,.76s0,.24,0,.36V79A5.12,5.12,0,0,0,70.2,82a3.76,3.76,0,0,0,1,1.83,2.55,2.55,0,0,0,1.76.74v9a22.94,22.94,0,0,0,17.24,22.22V125H79.59A9.22,9.22,0,0,0,74,126.91c-3.94,2-8.5,5.86-12.52,13.46A62.11,62.11,0,0,0,57.81,149c-3,8.58-5.33,20.19-6.32,35.89h8.59c.23-3,.53-6,.92-9.1a111.77,111.77,0,0,1,3.79-18.52,53.58,53.58,0,0,1,3.93-9.67V184.9h53.54V148a58.84,58.84,0,0,1,5.4,14,133.64,133.64,0,0,1,3.56,22.84Z" transform="translate(-1.39 -29.82)"/><path class="cls-3" d="M308.57,184.9h7.1a153.72,153.72,0,0,0-4.43-29.7,78.33,78.33,0,0,0-3.81-11.1c-4.59-10.51-10.22-15.31-14.87-17.46h0a9.12,9.12,0,0,0-5.18-1.65h-9.74v-9.24a23,23,0,0,0,17-19.12,22.58,22.58,0,0,0,.21-3.1V84a5,5,0,0,1-1.27.2,2.42,2.42,0,0,0,1.27.36,2.78,2.78,0,0,0,2.35-1.48,4,4,0,0,0,.45-1.1,5.09,5.09,0,0,0,.93-2.94V52.09a11.75,11.75,0,0,0-.26-2.47,3.71,3.71,0,0,0,.26-1.35v-3.5a5.07,5.07,0,0,0-.41-2c-.56-4.76-3.83-8.4-7.76-8.4a6.57,6.57,0,0,0-3.53,1.05,7.53,7.53,0,0,0-5.24-2.19,7.09,7.09,0,0,0-1.58.18l-.32.08c.23.06.46.14.69.23l-.37-.3a7.39,7.39,0,0,0-4.59-1.63,7.18,7.18,0,0,0-2.92.62l-.33.15.5,0-.17-.11a7.32,7.32,0,0,0-4-1.2,7.52,7.52,0,0,0-5.25,2.21l-.22.22-.19-.11a7.27,7.27,0,0,0-3.67-1,7.48,7.48,0,0,0-5.06,2l-.3.29h-.46a7.24,7.24,0,0,0-3.14.72,9.55,9.55,0,0,0-5,8.72,10.71,10.71,0,0,0,.13,1.64,22.87,22.87,0,0,0-.12,2.4c0,.25,0,.51,0,.76a3.47,3.47,0,0,0,0,.36V79a5.12,5.12,0,0,0,.93,2.95,3.76,3.76,0,0,0,1,1.83,2.56,2.56,0,0,0,1.76.74v9a22.94,22.94,0,0,0,17.24,22.22V125H255.59a9.21,9.21,0,0,0-5.55,1.92c-3.94,2-8.5,5.86-12.52,13.46A62.34,62.34,0,0,0,233.8,149c-3,8.58-5.33,20.19-6.32,35.89h8.59c.23-3,.53-6,.92-9.1a112,112,0,0,1,3.79-18.52,53.65,53.65,0,0,1,3.93-9.67V184.9h53.54V148a58.79,58.79,0,0,1,5.4,14,133.55,133.55,0,0,1,3.56,22.84Z" transform="translate(-1.39 -29.82)"/></svg>