<?xml version="1.0" encoding="utf-8"?>
<!-- Generator: Adobe Illustrator 20.0.0, SVG Export Plug-In . SVG Version: 6.00 Build 0)  -->
<svg version="1.1" id="Layer_1" xmlns="http://www.w3.org/2000/svg" xmlns:xlink="http://www.w3.org/1999/xlink" x="0px" y="0px"
	 viewBox="0 0 461.4 80" style="enable-background:new 0 0 461.4 80;" xml:space="preserve">
<style type="text/css">
	.st0{fill:none;stroke:#FFFFFF;stroke-miterlimit:10;}
	.st1{clip-path:url(#SVGID_3_);}
	.st2{fill:#FFFFFF;}
	.st3{fill:#1D1D1B;}
</style>
<title>Artboard 1</title>
<path class="st0" d="M23.5,40.2c0,1.3,0.1,2.6,0.3,3.9c2.2,12.5,14.1,21,26.7,18.8c6.1-1,11.5-4.5,15.1-9.6H47.8v-11H84
	c0,0.5,0,1.1-0.1,1.6c-0.3,2.6-0.8,5.2-1.7,7.7c-0.2,0.6-0.4,1.1-0.6,1.7c-7.3,19.3-29,29-48.3,21.7C20.1,70,10.9,58,9.4,43.9
	c-0.1-1.3-0.2-2.6-0.2-3.9C9.2,19.3,26,2.6,46.6,2.6c9.1,0,17.9,3.3,24.7,9.3L61.2,22.2c-9.9-8.1-24.5-6.6-32.5,3.3
	c-2.8,3.5-4.6,7.7-5.1,12.1L23.5,40.2z"/>
<g>
	<g>
		<g>
			<g>
				<g>
					<defs>
						<path id="SVGID_2_" d="M23.5,40.2c0,1.3,0.1,2.6,0.3,3.9c2.2,12.5,14.1,21,26.7,18.8c6.1-1,11.5-4.5,15.1-9.6H47.8v-11H84
							c0,0.5,0,1.1-0.1,1.6c-0.3,2.6-0.8,5.2-1.7,7.7c-0.2,0.6-0.4,1.1-0.6,1.7c-7.3,19.3-29,29-48.3,21.7C20.1,70,10.9,58,9.4,43.9
							c-0.1-1.3-0.2-2.6-0.2-3.9C9.2,19.3,26,2.6,46.6,2.6c9.1,0,17.9,3.3,24.7,9.3L61.2,22.2c-9.9-8.1-24.5-6.6-32.5,3.3
							c-2.8,3.5-4.6,7.7-5.1,12.1L23.5,40.2z"/>
					</defs>
					<clipPath id="SVGID_3_">
						<use xlink:href="#SVGID_2_"  style="overflow:visible;"/>
					</clipPath>
					<g class="st1">
						<path class="st0" d="M12,17.9c4.3-0.5,8.5,0.7,12.7,2c1.4,0.4,2.8,0.9,4,1.7c2,1.4,3.6,3.7,5.3,5.6c4.4,5,10.3,7.8,14.6,13
							c1.4,2,3,3.9,4.6,5.7c1.9,1.8,4.2,3.1,6.7,4c4.7,1.9,9.6,3.1,14.3,5.1c5,1.9,9.4,5.3,12.6,9.7c2.5,3.6,3.9,7.9,4.3,12.2
							c0.2,1.8,0,3.6-0.5,5.3c-1,2-2.6,3.6-4.7,4.4c-8,3.5-17.2,1.7-23.4-4.4c-2-1.9-3.9-4.3-6.4-5.1c-1.6-0.4-3.3-0.4-4.9,0
							c-11.6,1.9-23,5.7-34.8,5.4c-2.4,0-4.9-0.4-7.2-1.3c-1.8-0.8-3.5-1.9-5-3.1c-2.8-1.8-5.3-4.1-7.3-6.7
							c-1.4-2.3-2.6-4.7-3.5-7.2c-2.1-5.1-3.5-10.4-4-15.9c-0.3-5.5,1.1-11.4,4.5-14.9c3.2-3.2,6.2-4.7,8.5-9
							C4.1,20.8,7.8,18.3,12,17.9z"/>
						<path class="st0" d="M10.2,23.4c3.4-0.2,6.9,0.4,10.1,1.6c1.1,0.3,2.2,0.8,3.2,1.4c1.6,1.3,3,2.8,4.2,4.5
							c3.5,4,8.2,6.3,11.6,10.4c1.2,1.6,2.4,3.1,3.7,4.5c1.5,1.4,3.3,2.5,5.3,3.2c3.8,1.5,7.7,2.5,11.4,4.1c4,1.6,7.5,4.2,10,7.7
							c1.9,2.9,3.1,6.3,3.4,9.7c0.2,1.4,0,2.8-0.4,4.2c-0.7,1.6-2.1,2.9-3.7,3.6c-6.3,2.8-13.7,1.4-18.6-3.6
							c-1.6-1.4-3.1-3.3-5.1-3.9c-1.3-0.3-2.6-0.3-3.9,0c-9.2,1.5-18.3,4.5-27.7,4.3c-1.9,0-3.9-0.3-5.7-1c-1.4-0.7-2.8-1.5-4-2.5
							c-2.2-1.4-4.1-3.2-5.8-5.3c-1.2-1.8-2.1-3.7-2.8-5.8c-1.7-4.1-2.8-8.4-3.2-12.8C-8,43.2-7,38.5-4.2,35.8
							c2.5-2.5,4.9-3.7,6.7-7.2C4,25.7,6.9,23.7,10.2,23.4z"/>
						<path class="st0" d="M8.1,28.9c1.9-0.1,3.8,0.3,5.6,1c0.6,0.2,1.2,0.5,1.8,0.8c0.9,0.8,1.7,1.7,2.4,2.7c2,2.4,4.6,3.8,6.5,6.2
							c0.7,0.9,1.3,1.9,2,2.8c0.9,0.8,1.9,1.5,3,1.9c2.1,0.9,4.3,1.5,6.4,2.5c2.3,1,4.2,2.6,5.6,4.7c1.1,1.8,1.8,3.8,2,5.8
							c0.1,0.8,0,1.7-0.2,2.5c-0.4,0.9-1.1,1.7-2.1,2.1c-3.5,1.6-7.7,0.8-10.4-2.1c-0.7-1-1.7-1.8-2.8-2.4c-0.7-0.2-1.4-0.2-2.1,0
							c-5.3,0.8-10.3,2.6-15.6,2.4c-1.1,0-2.2-0.2-3.2-0.7c-0.8-0.4-1.5-0.9-2.2-1.5c-1.3-0.9-2.4-2-3.3-3.2C0.9,53.3,0.4,52.2,0,51
							c-1-2.4-1.6-5-1.8-7.6c-0.3-2.5,0.3-5,1.8-7.1c1.4-1.5,2.8-2.2,3.7-4.2C4.5,30.3,6.2,29.1,8.1,28.9z"/>
						<path class="st0" d="M7,31.6c1.2,0,2.3,0.2,3.4,0.7c0.4,0.1,0.7,0.3,1.1,0.6c0.5,0.5,1,1.1,1.4,1.8c1.2,1.6,2.8,2.5,3.9,4.2
							c0.4,0.6,0.8,1.3,1.3,1.8c0.5,0.6,1.1,1,1.8,1.3c1.3,0.6,2.6,1,3.8,1.7c1.4,0.7,2.6,1.8,3.4,3.1c0.7,1.2,1.1,2.5,1.2,3.9
							c0.1,0.6,0,1.1-0.1,1.7C28,53,27.6,53.5,27,53.8c-2.2,1-4.8,0.4-6.2-1.5c-0.4-0.7-1-1.2-1.7-1.6c-0.4-0.1-0.9-0.1-1.3,0
							c-3.1,0.5-6.1,1.7-9.2,1.6c-0.7,0-1.3-0.1-1.9-0.4c-0.5-0.3-1-0.6-1.4-1c-0.8-0.6-1.4-1.3-2-2.2c-0.4-0.7-0.7-1.5-1-2.3
							c-0.6-1.6-1-3.3-1.1-5c-0.2-1.6,0.2-3.3,1.1-4.7c0.9-0.8,1.6-1.7,2.2-2.8C4.8,32.6,5.8,31.7,7,31.6z"/>
						<path class="st0" d="M92.2,32.8c9.4,5.4,16.4,14.1,19.7,24.3c0.7,1.8,0.9,3.8,0.5,5.7c-0.8,2.4-2.8,4.3-5.3,4.9
							c-2.4,0.6-5,0.7-7.4,0.3c-3.4-0.1-6.8-1.3-9.5-3.4c-1.5-1.7-2.9-3.5-4.1-5.3c-7.8-9.1-26-7.1-24.8-22.9
							C62.4,19.5,83.4,27.7,92.2,32.8z"/>
						<path class="st0" d="M90.9,34.8c6.8,3.9,11.8,10.2,14.2,17.7c0.5,1.3,0.7,2.8,0.4,4.2c-0.6,1.8-2,3.1-3.8,3.6
							c-1.7,0.4-3.6,0.5-5.3,0.2c-2.5-0.1-4.9-0.9-6.9-2.5c-1.1-1.2-2.1-2.5-3-3.9c-5.6-6.6-18.9-5.2-18.1-16.6
							C69.3,25.2,84.5,31.2,90.9,34.8z"/>
						<path class="st0" d="M88,39.4c3.3,1.9,5.8,4.9,7,8.5c0.3,0.6,0.3,1.3,0.2,2c-0.3,0.8-1,1.5-1.8,1.7c-0.9,0.2-1.7,0.3-2.6,0.1
							c-1.2,0-2.4-0.4-3.4-1.2c-0.5-0.6-1-1.2-1.4-1.9c-2.8-3.2-9.2-2.5-8.8-8.1C77.6,34.8,84.9,37.7,88,39.4z"/>
						<path class="st0" d="M32.7,23c-2-1.3-4.1-2.5-6.1-3.9c-4-2.9-7.7-7.7-6.9-12.9c0.4-2,1.3-3.8,2.6-5.3
							c3.9-4.3,9.8-5.3,14.8-2.7c1.2,0.7,2.2,1.6,3.4,2.1c4.3,2.2,9.4,0.8,14.1-0.5c7.8-2.2,16.1-4,23.9-2s15.3,8.7,16.3,17.5
							c0.2,1,0.1,1.9-0.3,2.8c-0.7,1.4-2.4,1.7-3.8,1.8l-17.9,2c-4.3,0.2-8.6,1.1-12.7,2.7c-2.6,1.1-4.9,2.9-6.8,5.2
							C51.6,32,51,35.3,47.9,35c-2.6-0.3-5.1-3.6-6.8-5.3C38.5,27.3,35.7,25,32.7,23z"/>
						<path class="st0" d="M36.7,20.2c-1.5-1-3.1-1.9-4.6-3c-3.1-2.2-5.9-5.8-5.3-9.8c0.3-1.5,1-2.9,2-4c3-3.3,7.5-4.1,11.2-2
							c0.9,0.5,1.7,1.2,2.6,1.6c3.3,1.7,7.2,0.6,10.7-0.4c6-1.7,12.2-3,18.2-1.5s11.7,6.5,12.4,13.3c0.1,0.7,0,1.5-0.2,2.2
							C83,17.5,81.9,18,80.8,18l-13.6,1.6c-3.3,0.2-6.5,0.9-9.7,2.1c-2,0.8-3.8,2.2-5.2,3.9c-1.3,1.6-1.8,4.2-4.1,4
							c-2-0.2-3.9-2.7-5.2-4.1C41.1,23.5,38.9,21.7,36.7,20.2z"/>
						<path class="st0" d="M40.1,17.9c-1-0.7-2.1-1.3-3.1-2c-2-1.4-3.9-3.8-3.5-6.4c0.2-1,0.6-1.9,1.3-2.7c2-2.2,5-2.7,7.5-1.4
							c0.6,0.3,1.1,0.8,1.7,1.1c2.2,1.1,4.8,0.4,7.1-0.3c4-1.2,8.1-2.1,12.1-1.1s7.8,4.3,8.3,8.8c0.1,0.5,0,1-0.1,1.4
							c-0.5,0.6-1.2,1-1.9,0.9l-9.1,1.1c-2.2,0.1-4.4,0.6-6.4,1.4c-1.3,0.6-2.5,1.5-3.4,2.6c-0.8,1.1-1.2,2.8-2.7,2.7
							c-1.3-0.1-2.6-1.8-3.5-2.7C43,20.1,41.6,18.9,40.1,17.9z"/>
						<path class="st0" d="M44.4,15.4c-0.5-0.3-1-0.6-1.5-0.9c-1.1-0.6-1.8-1.7-1.8-3c0.1-0.5,0.3-0.9,0.7-1.2c1-1,2.5-1.2,3.7-0.6
							c0.3,0.2,0.6,0.3,0.9,0.5c1.2,0.4,2.4,0.3,3.6-0.1c2-0.6,4-0.8,6.1-0.5c2.1,0.4,3.7,2,4.2,4c0,0.2,0,0.5-0.1,0.7
							c-0.2,0.3-0.6,0.4-1,0.4l-4.6,0.5c-1.1,0.1-2.2,0.3-3.3,0.6c-0.7,0.3-1.3,0.7-1.7,1.2s-0.6,1.3-1.4,1.2
							c-0.8-0.1-1.3-0.8-1.7-1.2C45.8,16.4,45.1,15.9,44.4,15.4z"/>
					</g>
				</g>
				<g>
					<path id="SVGID_1_" class="st0" d="M23.5,40.2c0,1.3,0.1,2.6,0.3,3.9c2.2,12.5,14.1,21,26.7,18.8c6.1-1,11.5-4.5,15.1-9.6H47.8
						v-11H84c0,0.5,0,1.1-0.1,1.6c-0.3,2.6-0.8,5.2-1.7,7.7c-0.2,0.6-0.4,1.1-0.6,1.7c-7.3,19.3-29,29-48.3,21.7
						C20.1,70,10.9,58,9.4,43.9c-0.1-1.3-0.2-2.6-0.2-3.9C9.2,19.3,26,2.6,46.6,2.6c9.1,0,17.9,3.3,24.7,9.3L61.2,22.2
						c-9.9-8.1-24.5-6.6-32.5,3.3c-2.8,3.5-4.6,7.7-5.1,12.1L23.5,40.2z"/>
				</g>
			</g>
		</g>
	</g>
</g>
<g>
	<path class="st2" d="M130.9,46.9v11.6c-3.2,2.4-7.9,4.1-12.2,4.1c-9.3,0-16.5-7-16.5-16s7.3-15.9,16.9-15.9c4.5,0,9,1.7,12.1,4.4
		l-3,3.9c-2.4-2.2-5.8-3.6-9.1-3.6c-6.4,0-11.4,4.9-11.4,11.2c0,6.3,5.1,11.2,11.5,11.2c2.3,0,5-0.8,7.2-2.1v-8.7H130.9z"/>
	<path class="st2" d="M143.7,31.6c0,1.8-1.3,3.1-3,3.1s-3-1.3-3-3.1c0-1.9,1.3-3.1,3-3.1C142.4,28.4,143.7,29.7,143.7,31.6z
		 M138.2,62.3V38.4h5.1v23.9H138.2z"/>
	<path class="st2" d="M156.4,62.3l-9.3-23.9h5.4l6.7,18.8l6.6-18.8h5.2l-9.2,23.9H156.4z"/>
	<path class="st2" d="M194.7,52.3h-18c0.8,3.7,3.7,6,7.4,6c2.6,0,5-1,6.8-2.8l2.8,2.9c-2.3,2.6-5.7,4-9.9,4
		c-7.4,0-12.2-4.9-12.2-12.1c0-7.2,5-12.1,12.1-12.1C191.8,38.2,195.3,43.8,194.7,52.3z M190.1,48.6c-0.2-3.8-2.8-6.2-6.7-6.2
		c-3.7,0-6.4,2.4-7.1,6.2H190.1z"/>
	<path class="st2" d="M225.9,59.4c-1.7,2.1-4.5,3.1-7.9,3.1c-5.2,0-8.4-3.2-8.4-7.4c0-4.4,3.3-7.1,9-7.2h7.2v-0.7c0-3-2-4.8-5.7-4.8
		c-2.3,0-4.6,0.8-7.1,2.4l-2.1-3.6c3.3-2,5.7-3,10.3-3c6.2,0,9.6,3.1,9.6,8.4v15.7h-5.1v-2.9H225.9z M225.9,53.9v-2.2h-6.5
		c-3.4,0-4.9,0.9-4.9,3.2c0,2.1,1.8,3.6,4.6,3.6C222.8,58.5,225.7,56.5,225.9,53.9z"/>
	<path class="st2" d="M262.8,30.9c9.5,0,16.2,6.6,16.2,15.7s-6.9,15.7-16.4,15.7h-12.8V30.9H262.8z M255.2,57.6h7.8
		c6.1,0,10.8-4.6,10.8-10.9c0-6.4-4.8-11-11-11h-7.6V57.6z"/>
	<path class="st2" d="M298.8,59.4c-1.7,2.1-4.5,3.1-7.9,3.1c-5.2,0-8.4-3.2-8.4-7.4c0-4.4,3.3-7.1,9-7.2h7.2v-0.7c0-3-2-4.8-5.7-4.8
		c-2.3,0-4.6,0.8-7.1,2.4l-2.1-3.6c3.3-2,5.7-3,10.3-3c6.2,0,9.6,3.1,9.6,8.4v15.7h-5.1v-2.9H298.8z M298.7,53.9v-2.2h-6.5
		c-3.4,0-4.9,0.9-4.9,3.2c0,2.1,1.8,3.6,4.6,3.6C295.6,58.5,298.4,56.5,298.7,53.9z"/>
	<path class="st2" d="M319.4,65.6c-1.5,3.7-4.2,5.6-7.8,5.6c-2.1,0-3.8-0.6-5.5-2.1l2.2-4c1.2,0.8,2.1,1.2,3.1,1.2
		c1.6,0,2.9-0.9,3.7-2.7l0.8-1.8L306,38.3h5.4l7.1,18.1l6.7-18.1h5.2L319.4,65.6z"/>
</g>
<circle class="st3" cx="141.6" cy="-57.5" r="9"/>
</svg>
